<svg width="70" height="70" viewBox="0 0 70 70" fill="none" xmlns="http://www.w3.org/2000/svg">
<path d="M21.3281 50.5859C20.5734 50.5859 19.9609 51.1984 19.9609 51.9531C19.9609 52.7078 20.5734 53.3203 21.3281 53.3203C22.0828 53.3203 22.6953 52.7078 22.6953 51.9531C22.6953 51.1984 22.0828 50.5859 21.3281 50.5859Z" fill="url(#paint0_linear_1_811)"/>
<path d="M61.5436 25.9766L69.6004 17.9199C69.767 17.7532 69.8877 17.5464 69.9508 17.3194C70.014 17.0923 70.0173 16.8528 69.9606 16.6241C69.9039 16.3954 69.7891 16.1853 69.6272 16.014C69.4653 15.8428 69.262 15.7163 69.0368 15.6468L49.4175 9.59144C47.6489 3.90649 42.3923 0 36.3675 0C30.7669 0 25.758 3.41321 23.685 8.56208L0.960211 15.648C0.735569 15.718 0.532808 15.8449 0.371546 16.0162C0.210284 16.1876 0.0959795 16.3977 0.0396918 16.6262C-0.016596 16.8546 -0.0129615 17.0938 0.0502437 17.3204C0.113449 17.5471 0.234085 17.7536 0.40048 17.92L8.66916 26.1887L3.45412 34.8806C3.3488 35.0562 3.28426 35.2532 3.26525 35.457C3.24624 35.6609 3.27325 35.8664 3.34428 36.0584C3.41532 36.2504 3.52856 36.424 3.67566 36.5664C3.82276 36.7088 3.99996 36.8164 4.19418 36.8811L11.7579 39.4022V60.43C11.7579 60.7083 11.8429 60.98 12.0014 61.2087C12.1599 61.4375 12.3845 61.6124 12.6451 61.7101C17.2699 63.4443 34.4536 69.889 34.5458 69.9216C34.8281 70.0218 35.1356 70.026 35.4206 69.9338C35.4245 69.9324 35.4286 69.9316 35.4326 69.9303L60.0422 61.7271C60.3144 61.6363 60.5512 61.4622 60.719 61.2294C60.8867 60.9966 60.977 60.717 60.9771 60.43V38.8392L69.0433 36.3044C69.2675 36.234 69.4698 36.1069 69.6306 35.9355C69.7914 35.764 69.9053 35.554 69.9613 35.3258C70.0173 35.0975 70.0135 34.8586 69.9502 34.6322C69.887 34.4058 69.7664 34.1996 69.6003 34.0334L61.5436 25.9766ZM50.0395 13.672C50.0395 13.3246 50.0248 12.978 49.9987 12.6325L66.0625 17.5906L59.2406 24.4124L48.0941 20.6973C49.3563 18.5876 50.0395 16.1532 50.0395 13.672ZM26.0215 10.1134C27.5392 5.69985 31.697 2.7344 36.3675 2.7344C41.3989 2.7344 45.7627 6.13762 46.9794 11.0103C47.1961 11.8809 47.3055 12.7748 47.3051 13.672C47.3051 16.2114 46.4623 18.5916 44.8676 20.5561C42.779 23.1322 39.6808 24.6096 36.3675 24.6096C32.786 24.6096 29.4266 22.8516 27.3805 19.9059C26.1045 18.073 25.4299 15.9172 25.4299 13.672C25.4299 12.4509 25.6288 11.2537 26.0215 10.1134ZM3.93277 17.5853L22.8411 11.6894C22.7449 12.3459 22.6963 13.0084 22.6955 13.6718C22.6955 15.8732 23.217 18.0053 24.2109 19.9291L10.76 24.4124L3.93277 17.5853ZM6.67578 34.8259L10.9989 27.6205L32.951 34.9379L28.6281 42.1433L6.67578 34.8259ZM33.6331 66.6605L14.4923 59.4827V40.3137C29.552 45.307 28.8166 45.1546 29.2359 45.1546C29.706 45.1546 30.156 44.9114 30.4086 44.4907L33.6331 39.1161V66.6605ZM35.0003 32.7388L14.7144 25.9769L25.7605 22.295C28.3459 25.4734 32.2379 27.344 36.3675 27.344C40.1877 27.344 43.7781 25.7718 46.3606 23.0019L55.2862 25.9768L35.0003 32.7388ZM58.2427 59.4447L36.3675 66.7363V38.0771L41.2144 44.1352C41.3866 44.3504 41.6198 44.5085 41.8835 44.5889C42.1471 44.6692 42.4289 44.668 42.6919 44.5854L58.2427 39.6986V59.4447ZM42.7649 41.6964L37.2928 34.8568L59.2406 27.541L66.0716 34.372L42.7649 41.6964Z" fill="url(#paint1_linear_1_811)"/>
<path d="M30.012 53.621L26.9713 52.4808C26.2644 52.2158 25.4763 52.5739 25.2111 53.2809C24.946 53.988 25.3042 54.7761 26.0112 55.0412L29.0518 56.1814C29.7603 56.4469 30.5474 56.0871 30.8121 55.3813C31.0772 54.6743 30.719 53.8861 30.012 53.621ZM30.0119 59.4617L21.8087 56.3855C21.1017 56.1204 20.3136 56.4786 20.0484 57.1856C19.7832 57.8926 20.1415 58.6808 20.8485 58.9459L29.0517 62.0221C29.2051 62.0798 29.3676 62.1095 29.5316 62.1096C30.0851 62.1096 30.606 61.7709 30.8119 61.222C31.0772 60.5149 30.719 59.7268 30.0119 59.4617ZM44.1707 8.60359C43.6368 8.06957 42.7711 8.0697 42.2371 8.60359L35.0006 15.8402L33.233 14.0725C32.6991 13.5386 31.8334 13.5386 31.2993 14.0725C30.7653 14.6064 30.7655 15.4721 31.2993 16.0062L34.0339 18.7404C34.5678 19.2743 35.4335 19.2743 35.9675 18.7404L44.1707 10.5372C44.7046 10.0033 44.7046 9.13762 44.1707 8.60359Z" fill="url(#paint2_linear_1_811)"/>
<defs>
<linearGradient id="paint0_linear_1_811" x1="32.266" y1="8.20312" x2="32.266" y2="62.1096" gradientUnits="userSpaceOnUse">
<stop stop-color="#FF8100"/>
<stop offset="1" stop-color="#BD5F00"/>
</linearGradient>
<linearGradient id="paint1_linear_1_811" x1="32.266" y1="8.20312" x2="32.266" y2="62.1096" gradientUnits="userSpaceOnUse">
<stop stop-color="#FF8100"/>
<stop offset="1" stop-color="#BD5F00"/>
</linearGradient>
<linearGradient id="paint2_linear_1_811" x1="32.266" y1="8.20312" x2="32.266" y2="62.1096" gradientUnits="userSpaceOnUse">
<stop stop-color="#FF8100"/>
<stop offset="1" stop-color="#BD5F00"/>
</linearGradient>
</defs>
</svg>
