<svg width="70" height="70" viewBox="0 0 70 70" fill="none" xmlns="http://www.w3.org/2000/svg">
<path d="M69.0125 40.815C69.5611 40.815 70 40.2665 70 39.7179V29.185C70 28.6364 69.5611 28.0878 69.0125 28.0878L62.4295 27.5392C61.6614 24.7962 60.5643 22.2727 59.1379 19.9687L63.1975 15.1411C63.5266 14.7022 63.5266 14.0439 63.0878 13.7147L55.627 6.25392C55.1881 5.81505 54.5298 5.81505 54.2006 6.1442L49.1536 10.4232C46.7398 8.99687 44.1066 8.0094 41.4734 7.3511L40.9248 0.987461C40.9248 0.438871 40.3762 0 39.8276 0H29.185C28.6364 0 28.0878 0.438871 28.0878 0.987461L27.5392 7.57053C24.7962 8.33856 22.2727 9.43574 19.9687 10.8621L15.1411 6.80251C14.7022 6.47335 14.0439 6.47335 13.7147 6.91223L6.25392 14.373C5.81505 14.8119 5.81505 15.4702 6.1442 15.7994L10.4232 20.8464C8.99687 23.2602 8.0094 25.8934 7.3511 28.5266L0.987461 29.0752C0.438871 29.0752 0 29.6238 0 30.1724V40.815C0 41.3636 0.438871 41.9122 0.987461 41.9122L7.57053 42.4608C8.00941 43.8871 8.44828 45.3135 9.10658 46.6301H1.75549C1.09718 46.6301 0.658307 47.069 0.658307 47.7273V68.9028C0.658307 69.5611 1.09718 70 1.75549 70H68.9028C69.5611 70 70 69.5611 70 68.9028C70 68.2445 69.5611 67.8056 68.9028 67.8056H50.4702V59.4671L54.8589 63.0878C55.0784 63.3072 55.2978 63.3072 55.5172 63.3072C55.8464 63.3072 56.0658 63.1975 56.2853 62.9781L63.7461 55.5172C64.185 55.0784 64.185 54.4201 63.8558 53.9812L59.5768 48.9342C61.0031 46.5204 61.9906 43.8871 62.6489 41.2539L69.0125 40.815ZM48.2759 63.4169H26.6614V48.7147H33.6834V52.6646C33.6834 53.3229 34.1223 53.7618 34.7806 53.7618H40.1567C40.815 53.7618 41.2539 53.3229 41.2539 52.6646V48.7147H48.2759V63.4169ZM35.8777 48.7147H39.0596V51.5674H35.8777V48.7147ZM41.8025 46.5204H38.6207V26.3323C38.6207 25.674 38.1818 25.2351 37.5235 25.2351H25.4545C27.9781 22.7116 31.3793 21.2853 35 21.2853C42.4608 21.2853 48.4953 27.3198 48.4953 34.7806C48.3856 39.7179 45.8621 44.1066 41.8025 46.5204ZM24.0282 27.4295H27.21V30.2821H24.0282V27.4295ZM22.931 32.4765H28.3072C28.9655 32.4765 29.4044 32.0376 29.4044 31.3793V27.4295H36.4263V42.1317H14.8119V27.4295H21.8339V31.3793C21.8339 32.0376 22.2727 32.4765 22.931 32.4765ZM14.8119 44.326H36.4263V46.5204H14.8119V44.326ZM15.2508 48.7147V51.5674H12.069V48.7147H15.2508ZM9.87461 48.7147V52.6646C9.87461 53.3229 10.3135 53.7618 10.9718 53.7618H16.348C17.0063 53.7618 17.4451 53.3229 17.4451 52.6646V48.7147H24.4671V63.4169H2.85266V48.7147H9.87461ZM2.85266 67.8056V65.6113H24.4671V67.8056H2.85266ZM26.6614 67.8056V65.6113H48.2759V67.8056H26.6614ZM60.674 40.047C60.1254 43.0094 58.9185 45.8621 57.2727 48.4953C57.0533 48.9342 57.0533 49.373 57.3824 49.8119L61.5517 54.7492L55.5172 60.7837L50.7994 56.8339C50.6897 56.7241 50.5799 56.7241 50.4702 56.6144V47.5078C50.4702 46.8495 50.0313 46.4107 49.373 46.4107H45.4232C48.7147 43.4483 50.5799 39.279 50.5799 34.7806C50.5799 26.1129 43.558 19.0909 34.8903 19.0909C29.953 19.0909 25.4545 21.395 22.4922 25.2351H13.7147C13.0564 25.2351 12.6176 25.674 12.6176 26.3323V46.5204H11.3009C10.4232 44.7649 9.76489 43.0094 9.32602 41.0345C9.2163 40.5956 8.77743 40.2665 8.33856 40.1567L1.97492 39.7179V31.1599L8.11912 30.6113C8.55799 30.6113 8.99687 30.1724 9.10658 29.7335C9.76489 26.7712 10.8621 23.9185 12.5078 21.2853C12.7273 20.8464 12.7273 20.4075 12.3981 19.9687L8.22884 15.0313L14.2633 8.99687L18.9812 12.9467C19.3103 13.2759 19.8589 13.2759 20.2978 13.0564C22.8213 11.4107 25.674 10.094 28.6364 9.43574C29.0752 9.32602 29.4044 8.88715 29.5141 8.44828L30.0627 1.97492H38.6207L39.1693 8.11912C39.1693 8.55799 39.6082 8.99687 40.047 9.10658C43.0094 9.65517 45.8621 10.8621 48.4953 12.5078C48.9342 12.7273 49.373 12.7273 49.8119 12.3981L54.7492 8.33856L60.7837 14.373L56.8339 18.9812C56.5047 19.3103 56.5047 19.8589 56.7241 20.2978C58.3699 22.8213 59.6865 25.674 60.3448 28.6364C60.4545 29.0752 60.8934 29.4044 61.3323 29.5141L67.6959 30.0627V38.6207L61.5517 39.1693C61.2226 39.279 60.7837 39.6082 60.674 40.047Z" fill="url(#paint0_linear_1_812)"/>
<defs>
<linearGradient id="paint0_linear_1_812" x1="35" y1="0" x2="35" y2="70" gradientUnits="userSpaceOnUse">
<stop stop-color="#FF8100"/>
<stop offset="1" stop-color="#BD5F00"/>
</linearGradient>
</defs>
</svg>
