<svg width="73" height="74" viewBox="0 0 73 74" fill="none" xmlns="http://www.w3.org/2000/svg">
<path d="M4.61307 40.262V33.711C4.61307 33.1463 5.06485 32.6945 5.62959 32.6945H14.5524L17.489 35.6311V47.8294C17.489 48.3941 17.0372 48.8459 16.4725 48.8459H5.62959C5.06485 48.8459 4.61307 48.3941 4.61307 47.8294V44.5539M27.9931 34.9535V68.7245C27.9931 70.5317 26.5247 72 24.7176 72C22.9104 72 21.4421 70.5317 21.4421 68.7245V47.3776M21.3292 47.3776V68.6116C21.3292 70.4188 19.8609 71.8871 18.0537 71.8871C16.2466 71.8871 14.7783 70.4188 14.7783 68.6116V48.8459M27.9931 48.0553C30.5908 48.0553 32.7368 45.9093 32.7368 43.3115V34.0499C32.7368 29.645 29.2355 26.1436 24.8305 26.1436H17.2631C13.5359 26.1436 10.4863 28.6284 9.46978 32.0168M54.8744 41.9562L57.5851 44.6669L63.9101 38.3419M54.8744 54.2674L57.5851 56.9781L63.9101 50.6531M56.0039 62.7384L62.7807 69.4022M56.0039 69.4022L62.7807 62.7384M5.40369 44.5539H4.04833C2.91886 44.5539 1.90234 43.6504 1.90234 42.4079C1.90234 41.2785 2.80592 40.262 4.04833 40.262H5.29075C6.42022 40.262 7.43674 41.1655 7.43674 42.4079C7.43674 43.5374 6.53316 44.5539 5.40369 44.5539ZM26.9765 13.6065C26.9765 16.6561 24.4917 20.1574 21.3292 20.1574C18.1667 20.1574 15.6819 16.6561 15.6819 13.6065C15.6819 10.5569 18.1667 7.95917 21.3292 7.95917C24.4917 7.95917 26.9765 10.5569 26.9765 13.6065ZM57.3592 33.824C66.1691 32.9204 72.4941 25.0141 71.5905 16.2043C70.574 7.50738 62.7807 1.18236 53.9708 2.08593C45.161 2.98951 38.836 10.8958 39.7395 19.7056C39.8525 20.7222 40.0784 21.7387 40.4172 22.7552L36.0123 30.2097L44.3703 29.3061C47.6458 32.5816 52.3896 34.3887 57.3592 33.824ZM51.9378 26.1436L44.8221 19.028L48.0976 15.7525L51.9378 19.5927L61.6512 9.76632L64.9267 13.0418L51.9378 26.1436ZM41.0949 38.003H48.0976V45.0057H41.0949V38.003ZM41.0949 50.3142H48.0976V57.3169H41.0949V50.3142ZM41.0949 62.6254H48.0976V69.6281H41.0949V62.6254Z" stroke="url(#paint0_linear_1_804)" stroke-width="2.4" stroke-miterlimit="10" stroke-linecap="round" stroke-linejoin="round"/>
<defs>
<linearGradient id="paint0_linear_1_804" x1="36.7894" y1="2" x2="36.7894" y2="72" gradientUnits="userSpaceOnUse">
<stop stop-color="#FF8100"/>
<stop offset="1" stop-color="#BD5F00"/>
</linearGradient>
</defs>
</svg>
