<svg width="70" height="70" viewBox="0 0 70 70" fill="none" xmlns="http://www.w3.org/2000/svg">
<path d="M68.5714 31.4286H42.8571V1.42857C42.8571 0.639714 42.2176 0 41.4286 0H1.42857C0.639571 0 0 0.639714 0 1.42857V68.5714C0 69.3603 0.639571 70 1.42857 70H39.2857C40.0747 70 40.7143 69.3603 40.7143 68.5714V64.2857H57.8571V68.5714C57.8571 69.3603 58.4967 70 59.2857 70H64.2857C65.0747 70 65.7143 69.3603 65.7143 68.5714V64.2857H66.4286C67.2176 64.2857 67.8571 63.646 67.8571 62.8571V39.2857H68.5714C69.3604 39.2857 70 38.646 70 37.8571V32.8571C70 32.0683 69.3604 31.4286 68.5714 31.4286ZM20 67.1429H2.85714V55H20V67.1429ZM20 52.1429H2.85714V2.85714H20V52.1429ZM32.8571 67.1429H22.8571V2.85714H40V31.4286H29.2857C28.4967 31.4286 27.8571 32.0683 27.8571 32.8571V37.8571C27.8571 38.646 28.4967 39.2857 29.2857 39.2857H30.7143V62.8571C30.7143 63.646 31.3539 64.2857 32.1429 64.2857H32.8571V67.1429ZM37.8571 67.1429H35.7143V64.2857H37.8571V67.1429ZM62.8571 67.1429H60.7143V64.2857H62.8571V67.1429ZM65 61.4286H33.5714V51.4286H65V61.4286ZM65 48.5714H33.5714V39.2857H65V48.5714ZM67.1429 36.4286H30.7143V34.2857H67.1429V36.4286Z" fill="url(#paint0_linear_1_802)"/>
<path d="M47.1462 42.1441H51.4319V45.0013H47.1462V42.1441ZM47.1462 54.287H51.4319V57.1441H47.1462V54.287ZM25.7176 22.8584H28.5748V28.5727H25.7176V22.8584ZM14.2891 22.8584H17.1462V28.5727H14.2891V22.8584ZM9.28906 59.287H13.5748V62.1441H9.28906V59.287Z" fill="url(#paint1_linear_1_802)"/>
<defs>
<linearGradient id="paint0_linear_1_802" x1="30.3605" y1="22.8584" x2="30.3605" y2="62.1441" gradientUnits="userSpaceOnUse">
<stop stop-color="#FF8100"/>
<stop offset="1" stop-color="#BD5F00"/>
</linearGradient>
<linearGradient id="paint1_linear_1_802" x1="30.3605" y1="22.8584" x2="30.3605" y2="62.1441" gradientUnits="userSpaceOnUse">
<stop stop-color="#FF8100"/>
<stop offset="1" stop-color="#BD5F00"/>
</linearGradient>
</defs>
</svg>
