<svg width="70" height="70" viewBox="0 0 70 70" fill="none" xmlns="http://www.w3.org/2000/svg">
<path d="M68.8525 25.2459H36.7213C36.0328 25.2459 35.5738 25.7049 35.5738 26.3934V34.082L32.7049 33.3934L29.6066 30.2951C33.0492 27.082 33.2787 20.3115 33.2787 18.3607C37.5246 18.3607 40.5082 17.2131 41.6557 15.1475C42.1148 14.2295 42.459 12.7377 41.1967 10.7869C39.9344 8.95082 38.3279 8.03279 36.1475 8.03279H32.0164C31.6721 5.96721 30.2951 1.60656 24.9016 0.344262C23.7541 0.114754 22.1475 0 21.8033 0C9.86885 0 8.03279 5.7377 8.03279 9.18033V14.918C8.03279 15.7213 8.37705 16.6393 9.06557 17.3279C8.4918 18.0164 8.03279 19.1639 8.03279 20.6557C8.03279 23.5246 9.98361 24.7869 11.7049 25.1311C12.2787 26.8525 13.082 28.1148 13.8852 29.1475L9.63934 33.3934C8.72131 34.4262 9.86885 35.459 9.86885 35.459L4.93443 40.3934C4.47541 40.9672 0 45.5574 0 49.3443C0 49.5738 -1.04308e-07 49.6885 0.114754 49.8033L5.85246 61.2787C5.96721 61.6229 6.31148 61.7377 6.54098 61.8525C6.65574 61.8525 7.68853 62.1967 9.18033 62.1967C9.18033 62.3115 9.06557 68.7377 9.06557 68.7377C9.06557 69.4262 9.52459 69.8852 10.2131 69.8852C10.9016 69.8852 11.3607 69.4262 11.3607 68.7377V65.5246C13.082 67.5902 15.8361 69.8852 19.3934 69.8852C22.9508 69.8852 29.4918 67.5902 35.2295 65.5246C36.2623 65.1803 37.1803 64.8361 38.0984 64.4918C38.3279 64.377 38.5574 64.377 38.9016 64.2623V68.8525C38.9016 69.541 39.3607 70 40.0492 70C40.7377 70 41.1967 69.541 41.1967 68.8525V63.6885C43.2623 63.2295 45.2131 63 46.9344 63.1147H54.9672C56.918 63.1147 59.5574 62.4262 60.3607 60.3606C60.5902 59.7869 60.7049 59.2131 60.7049 58.5246H68.7377C69.4262 58.5246 69.8853 58.0656 69.8853 57.377V26.3934C70 25.7049 69.541 25.2459 68.8525 25.2459ZM56.2295 27.541V33.7377L53.2459 32.2459C53.1312 32.1311 53.0164 32.1311 52.7869 32.1311C52.5574 32.1311 52.4426 32.1311 52.3279 32.2459L49.3443 33.7377V27.541H56.2295ZM22.7213 33.8525C22.6066 33.623 22.0328 33.2787 22.0328 33.2787C23.4098 33.2787 24.5574 33.0492 25.7049 32.7049L25.2459 34.082L24.0984 37.0656C24.0984 37.0656 22.8361 33.8525 22.7213 33.8525ZM28.3443 32.2459L30.7541 34.6557L29.6066 36.8361L27.6557 34.1967L28.3443 32.2459ZM30.4098 10.3279C29.3771 11.1311 28.459 12.1639 27.7705 13.082C25.8197 15.9508 24.0984 16.0656 24.0984 16.0656H18.0164C18.4754 15.6066 18.9344 15.0328 19.2787 14.459C20.6557 12.3934 23.1803 10.3279 25.2459 10.3279H30.4098ZM39.2459 12.1639C39.8197 12.9672 39.9344 13.6557 39.5902 14.1148C39.1311 15.0328 37.1803 16.0656 33.2787 16.0656H33.1639C32.9344 14 32.5902 12.5082 32.3607 11.7049C33.623 10.9016 34.8853 10.3279 36.1475 10.3279C37.4098 10.3279 38.4426 10.9016 39.2459 12.1639ZM10.3279 9.18033C10.3279 5.04918 13.6557 3.32787 17.4426 2.63934C15.4918 4.70492 14.918 7.34426 14.918 9.18033C14.918 9.86885 15.3771 10.3279 16.0656 10.3279C16.6393 10.3279 17.2131 9.86885 17.2131 9.18033C17.2131 8.4918 17.4426 2.98361 23.0656 2.40984C28 2.86885 29.3771 6.31147 29.7213 8.03279H25.2459C22.1475 8.03279 19.0492 10.5574 17.4426 13.082C15.4918 15.9508 13.7705 16.0656 13.7705 16.0656H11.4754C10.5574 16.0656 10.3279 15.4918 10.3279 14.918V9.18033ZM12.623 22.9508C12.2787 22.9508 10.3279 22.8361 10.3279 20.6557C10.3279 18.5902 11.2459 18.3607 11.4754 18.3607H24.0984C24.4426 18.3607 27.082 18.2459 29.6066 14.459C29.8361 14.1148 30.0656 13.7705 30.4098 13.4262C30.6393 14.459 30.9836 16.1803 30.9836 18.4754C30.9836 18.5902 31.4426 24.9016 28.1148 28.5738C26.623 30.1803 24.4426 30.9836 21.8033 30.9836C21.6885 30.9836 15.7213 30.8689 13.7705 23.7541C13.541 23.2951 13.082 22.9508 12.623 22.9508ZM15.0328 31.3279L20.082 34.6557L16.9836 38.5574L11.9344 34.4262L15.0328 31.3279ZM2.29508 49.1147C2.52459 46.7049 5.39344 43.2623 6.54098 42.1148L11.5902 37.0656L16.4098 41.082C16.6393 41.3115 16.8689 41.3115 17.0984 41.3115H17.2131C17.5574 41.3115 17.7869 41.082 18.0164 40.8525L21.3443 36.6066L22.9508 40.5082C23.1803 40.9672 23.5246 41.1967 23.9836 41.1967C24.4426 41.1967 24.9016 40.9672 25.0164 40.5082L26.5082 36.7213L28.6885 39.7049C28.918 40.0492 29.2623 40.1639 29.7213 40.1639C30.0656 40.1639 30.4098 39.9344 30.6393 39.5902L32.4754 35.8033L35.3443 36.4918V54.7377C33.623 55.3115 31.5574 56 29.3771 56.6885C27.6557 57.2623 25.9344 57.8361 24.3279 58.4098C22.3771 59.0984 20.082 58.2951 19.0492 56.459L14.5738 48.7705C14.2295 48.1967 13.541 48.082 12.9672 48.4262C12.3934 48.7705 12.2787 49.459 12.623 50.0328L15.8361 55.3115C14 60.7049 9.06557 60.2459 7.57377 59.9016L2.29508 49.1147ZM58.2951 59.4426C57.9508 60.3607 56.3443 60.8197 55.082 60.8197H47.1639C43.3771 60.5902 39.4754 61.7377 37.5246 62.4262C36.6066 62.7705 35.5738 63.1147 34.6557 63.459C29.2623 65.2951 22.7213 67.7049 19.5082 67.7049C15.4918 67.7049 12.623 63.5738 11.7049 62.082C13.6557 61.6229 15.8361 60.5902 17.4426 57.8361C18.7049 59.7869 20.8852 60.9344 23.1803 60.9344C23.8689 60.9344 24.5574 60.8197 25.2459 60.5902C26.7377 60.1311 28.459 59.5574 30.2951 58.8688C35.3443 57.1475 41.541 55.082 43.1475 55.082H51.1803C51.5246 55.082 52.2131 55.3115 52.3279 56.2295H49.3443C48.6557 56.2295 48.1967 56.6885 48.1967 57.377C48.1967 58.0656 48.6557 58.5246 49.3443 58.5246C49.3443 58.5246 58.0656 58.6393 58.5246 58.6393C58.5246 58.8688 58.4098 59.2131 58.2951 59.4426ZM67.7049 56.2295H54.623C54.5082 53.7049 52.5574 52.7869 51.1803 52.7869H43.1475C42.1148 52.7869 40.3934 53.2459 37.8689 53.9344V27.541H47.0492V35.5738C47.0492 35.918 47.2787 36.377 47.623 36.6066C47.9672 36.8361 48.4262 36.8361 48.7705 36.6066L52.9016 34.541L57.0328 36.6066C57.0328 36.7213 57.1475 36.7213 57.3771 36.7213C57.6066 36.7213 57.8361 36.7213 57.9508 36.6066C58.2951 36.377 58.5246 36.0328 58.5246 35.5738V27.541H67.7049V56.2295Z" fill="url(#paint0_linear_1_803)"/>
<path d="M47.0483 48.1965H42.4581C41.7696 48.1965 41.3105 48.6555 41.3105 49.3441C41.3105 50.0326 41.7696 50.4916 42.4581 50.4916H47.0483C47.7368 50.4916 48.1958 50.0326 48.1958 49.3441C48.1958 48.6555 47.7368 48.1965 47.0483 48.1965ZM42.4581 47.049H44.7532C45.4417 47.049 45.9007 46.59 45.9007 45.9014C45.9007 45.2129 45.4417 44.7539 44.7532 44.7539H42.4581C41.7696 44.7539 41.3105 45.2129 41.3105 45.9014C41.3105 46.59 41.7696 47.049 42.4581 47.049Z" fill="url(#paint1_linear_1_803)"/>
<defs>
<linearGradient id="paint0_linear_1_803" x1="44.7532" y1="44.7539" x2="44.7532" y2="50.4916" gradientUnits="userSpaceOnUse">
<stop stop-color="#FF8100"/>
<stop offset="1" stop-color="#BD5F00"/>
</linearGradient>
<linearGradient id="paint1_linear_1_803" x1="44.7532" y1="44.7539" x2="44.7532" y2="50.4916" gradientUnits="userSpaceOnUse">
<stop stop-color="#FF8100"/>
<stop offset="1" stop-color="#BD5F00"/>
</linearGradient>
</defs>
</svg>
