<svg width="76" height="70" viewBox="0 0 76 70" fill="none" xmlns="http://www.w3.org/2000/svg">
<path d="M75.7325 41.7767L69.698 27.294C69.6065 27.0742 69.4519 26.8863 69.2537 26.7542C69.0556 26.6221 68.8227 26.5517 68.5846 26.5518H64.9638V12.069C64.9638 11.7489 64.8367 11.442 64.6103 11.2156C64.384 10.9893 64.077 10.8621 63.7569 10.8621H55.3086V1.20696C55.3086 0.886851 55.1814 0.579857 54.9551 0.353509C54.7287 0.127161 54.4217 0 54.1016 0H22.7226C22.4025 0 22.0955 0.127161 21.8691 0.353509C21.6428 0.579857 21.5156 0.886851 21.5156 1.20696V16.8966H10.6536C10.3335 16.8966 10.0265 17.0238 9.8002 17.2501C9.57385 17.4765 9.44669 17.7835 9.44669 18.1036V26.5519H8.23974C8.00158 26.5518 7.76873 26.6222 7.57058 26.7543C7.37242 26.8864 7.21783 27.0743 7.12633 27.2942L1.09206 41.7767C0.834707 42.3907 1.12388 43.0972 1.73786 43.3546C1.88592 43.4167 2.04491 43.4485 2.20547 43.4482H7.03303V68.793C7.03303 69.1132 7.1602 69.4201 7.38654 69.6465C7.61289 69.8728 7.91989 70 8.23999 70H68.5847C68.9048 70 69.2118 69.8728 69.4382 69.6465C69.6645 69.4201 69.7917 69.1132 69.7917 68.793V43.4484H74.6192C75.285 43.4493 75.8254 42.9101 75.8263 42.2443C75.8263 42.0837 75.7945 41.9249 75.7325 41.7767ZM55.3087 13.2759H62.5501V26.5518H55.3087V13.2759ZM11.8606 19.3104H28.7571V26.5518H11.8606V19.3104ZM4.01571 41.0346L9.04399 28.9657H49.8777L44.8494 41.0346H4.01571ZM50.4811 67.5862H9.44682V43.4484H45.6537C45.8919 43.4485 46.1247 43.378 46.3229 43.2459C46.521 43.1138 46.6756 42.926 46.7671 42.7061L50.4813 33.7932L50.4811 67.5862ZM31.1709 26.5518V18.1034C31.1709 17.7833 31.0437 17.4763 30.8174 17.25C30.591 17.0237 30.284 16.8965 29.9639 16.8965H23.9294V2.41391H52.8949V26.5518H31.1709ZM67.3778 67.5862H52.8951V33.7931L56.6092 42.706C56.7007 42.9258 56.8553 43.1137 57.0535 43.2458C57.2516 43.3779 57.4845 43.4483 57.7226 43.4482H67.3778V67.5862ZM58.5266 41.0346L53.4983 28.9657H67.7805L72.8087 41.0346H58.5266Z" fill="url(#paint0_linear_1_810)"/>
<path d="M25.135 54.3105H11.8593C11.5392 54.3105 11.2322 54.4377 11.0059 54.6641C10.7795 54.8904 10.6523 55.1974 10.6523 55.5175V65.1726C10.6523 65.4927 10.7795 65.7997 11.0059 66.0261C11.2322 66.2524 11.5392 66.3796 11.8593 66.3796H25.1352C25.4553 66.3796 25.7623 66.2524 25.9886 66.0261C26.215 65.7997 26.3421 65.4927 26.3421 65.1726V55.5175C26.342 54.851 25.8016 54.3105 25.135 54.3105ZM23.9282 63.9658H13.0661V56.7245H23.9282V63.9658Z" fill="url(#paint1_linear_1_810)"/>
<defs>
<linearGradient id="paint0_linear_1_810" x1="18.4972" y1="54.3105" x2="18.4972" y2="66.3796" gradientUnits="userSpaceOnUse">
<stop stop-color="#FF8100"/>
<stop offset="1" stop-color="#BD5F00"/>
</linearGradient>
<linearGradient id="paint1_linear_1_810" x1="18.4972" y1="54.3105" x2="18.4972" y2="66.3796" gradientUnits="userSpaceOnUse">
<stop stop-color="#FF8100"/>
<stop offset="1" stop-color="#BD5F00"/>
</linearGradient>
</defs>
</svg>
