<svg width="70" height="70" viewBox="0 0 70 70" fill="none" xmlns="http://www.w3.org/2000/svg">
<path d="M50.8064 54.4013V40.6452H30.4839V54.1936H28.2258V37.7526C28.6662 37.5063 29.062 37.1876 29.3966 36.8098C30.7853 35.1897 30.8452 32.8684 29.5468 31.0348L14.1027 17.8466C13.7772 17.5723 13.4315 17.3229 13.0685 17.1003C14.3945 16.4357 15.5366 15.4551 16.3942 14.245C17.2519 13.035 17.7987 11.6325 17.9866 10.1613H21.4516C23.319 10.1613 24.8387 8.64161 24.8387 6.77419C24.8387 4.90677 23.319 3.3871 21.4516 3.3871H16.0627C15.2184 2.33307 14.1486 1.48168 12.932 0.895525C11.7153 0.309373 10.3827 0.00336427 9.03226 0C4.0521 0 0 4.0521 0 9.03226C0 12.3595 1.81323 15.2656 4.49919 16.8327C3.13985 17.5659 2.00404 18.6529 1.212 19.9788C0.419969 21.3047 0.00118926 22.8201 0 24.3645V65.4839C0 67.9745 2.02548 70 4.51613 70C5.87097 70 7.07452 69.3881 7.90323 68.4397C8.73194 69.3881 9.93548 70 11.2903 70C13.781 70 15.8065 67.9745 15.8065 65.4839V31.1094L21.4516 35.9484V57.5806C21.4516 58.5155 21.8332 59.3634 22.4474 59.9776C21.1626 61.0129 20.3226 62.58 20.3226 64.3548C20.3226 67.4676 22.855 70 25.9677 70C29.0805 70 31.6129 67.4676 31.6129 64.3548C31.6129 63.079 31.1715 61.9139 30.4545 60.9677H41.8024C41.0561 61.9395 40.6495 63.1295 40.6452 64.3548C40.6452 67.4676 43.1776 70 46.2903 70C49.4031 70 51.9355 67.4676 51.9355 64.3548C51.9355 63.0056 51.4398 61.7818 50.6473 60.8097C51.3437 60.6027 51.9549 60.1768 52.3903 59.5952C52.8257 59.0136 53.0621 58.3072 53.0645 57.5806C53.0623 56.8825 52.844 56.2021 52.4398 55.6328C52.0355 55.0636 51.4649 54.6334 50.8064 54.4013ZM39.5161 42.9032H41.7742V45.1613H39.5161V42.9032ZM32.7419 42.9032H37.2581V47.4194H44.0323V42.9032H48.5484V54.1936H32.7419V42.9032ZM22.5806 6.77419C22.5806 7.39629 22.0737 7.90323 21.4516 7.90323H11.9881L12.1811 7.5171C12.4606 6.95311 12.8926 6.47876 13.428 6.14787C13.9634 5.81699 14.5809 5.64283 15.2103 5.64516H21.4516C22.0737 5.64516 22.5806 6.1521 22.5806 6.77419ZM9.03226 2.25806C10.5667 2.26227 12.0543 2.78733 13.2515 3.74726C11.9066 4.23888 10.8009 5.22661 10.1613 6.50774L9.46355 7.90323H2.35968C2.90048 4.70468 5.68242 2.25806 9.03226 2.25806ZM2.35968 10.1613H15.7048C15.1652 13.3598 12.3832 15.8065 9.03226 15.8065C5.68129 15.8065 2.90048 13.3598 2.35968 10.1613ZM13.5484 65.4839C13.5484 66.7292 12.5356 67.7419 11.2903 67.7419C10.045 67.7419 9.03226 66.7292 9.03226 65.4839V45.3205C9.03226 44.1858 9.59678 43.1324 10.5406 42.5024L11.9169 41.5856L10.6648 39.7069L9.28855 40.6226C8.51449 41.1375 7.87984 41.836 7.44114 42.6556C7.00244 43.4753 6.77332 44.3908 6.77419 45.3205V65.4839C6.77419 66.7292 5.76145 67.7419 4.51613 67.7419C3.27081 67.7419 2.25806 66.7292 2.25806 65.4839V24.3645C2.25986 22.6942 2.92418 21.0928 4.10527 19.9117C5.28636 18.7306 6.88775 18.0663 8.55806 18.0645C10.0518 18.0645 11.5015 18.5985 12.6406 19.5673L27.7776 32.4484C28.4031 33.4148 28.3703 34.5382 27.6827 35.341C26.9026 36.2521 25.4077 36.3673 24.4989 35.586L8.69242 22.0376L7.22242 23.7526L13.5484 29.1742V65.4839ZM29.3548 64.3548C29.3548 66.2223 27.8352 67.7419 25.9677 67.7419C24.1003 67.7419 22.5806 66.2223 22.5806 64.3548C22.5806 62.4874 24.1003 60.9677 25.9677 60.9677C27.8352 60.9677 29.3548 62.4874 29.3548 64.3548ZM46.2903 67.7419C44.4229 67.7419 42.9032 66.2223 42.9032 64.3548C42.9032 62.4874 44.4229 60.9677 46.2903 60.9677C48.1577 60.9677 49.6774 62.4874 49.6774 64.3548C49.6774 66.2223 48.1577 67.7419 46.2903 67.7419ZM49.6774 58.7097H24.8387C24.2166 58.7097 23.7097 58.2027 23.7097 57.5806V37.7785C24.3959 38.1761 25.1747 38.386 25.9677 38.3871V56.4516H49.6774C50.2995 56.4516 50.8064 56.9585 50.8064 57.5806C50.8064 58.2027 50.2995 58.7097 49.6774 58.7097Z" fill="url(#paint0_linear_1_813)"/>
<path d="M65.3289 16.9355C66.7422 16.1553 67.9207 15.0108 68.742 13.621C69.5632 12.2311 69.9971 10.6466 69.9986 9.03226C69.9986 4.0521 65.9465 0 60.9663 0C59.6158 0.00336427 58.2832 0.309373 57.0666 0.895525C55.8499 1.48168 54.7801 2.33307 53.9358 3.3871H48.5469C46.6795 3.3871 45.1598 4.90677 45.1598 6.77419C45.1598 8.64161 46.6795 10.1613 48.5469 10.1613H52.0119C52.1967 11.6136 52.7313 12.9993 53.5698 14.1994C54.4084 15.3994 55.5259 16.3779 56.8261 17.0506L50.805 19.3087V16.9355C50.805 15.0681 49.2853 13.5484 47.4179 13.5484H33.8695C32.0021 13.5484 30.4824 15.0681 30.4824 16.9355V25.9677C30.4824 27.8352 32.0021 29.3548 33.8695 29.3548H38.9965C39.3942 30.0389 39.9638 30.6072 40.6488 31.0033C41.3338 31.3994 42.1105 31.6095 42.9018 31.6129C43.4403 31.6129 43.9698 31.5181 44.4802 31.3284L54.1921 27.6861V65.4839C54.1921 67.9745 56.2176 70 58.7082 70C60.0631 70 61.2666 69.3881 62.0953 68.4397C62.924 69.3881 64.1276 70 65.4824 70C67.9731 70 69.9986 67.9745 69.9986 65.4839V24.841C69.9971 23.2263 69.5633 21.6415 68.7421 20.2513C67.9209 18.861 66.7423 17.7161 65.3289 16.9355ZM67.6389 7.90323H60.535L59.8373 6.50774C59.1976 5.22689 58.0919 4.23953 56.7471 3.74839C57.9439 2.78765 59.4316 2.26215 60.9663 2.25806C64.3161 2.25806 67.0981 4.70468 67.6389 7.90323ZM47.4179 6.77419C47.4179 6.1521 47.9248 5.64516 48.5469 5.64516H54.7882C56.0798 5.64516 57.2405 6.3621 57.8174 7.5171L58.0105 7.90323H48.5469C47.9248 7.90323 47.4179 7.39629 47.4179 6.77419ZM54.2937 10.1613H67.6389C67.0992 13.3598 64.3173 15.8065 60.9663 15.8065C57.6153 15.8065 54.8345 13.3598 54.2937 10.1613ZM39.5147 15.8065H41.7727V18.0645H39.5147V15.8065ZM38.4003 27.0968H33.8695C33.2474 27.0968 32.7405 26.5898 32.7405 25.9677V16.9355C32.7405 16.3134 33.2474 15.8065 33.8695 15.8065H37.2566V20.3226H44.0308V15.8065H47.4179C48.04 15.8065 48.5469 16.3134 48.5469 16.9355V20.1555L41.3155 22.8674C40.4572 23.1925 39.7185 23.7714 39.1976 24.527C38.6768 25.2826 38.3987 26.179 38.4003 27.0968ZM67.7405 65.4839C67.7405 66.7292 66.7277 67.7419 65.4824 67.7419C64.2371 67.7419 63.2244 66.7292 63.2244 65.4839V45.3205C63.2252 44.3909 62.9961 43.4756 62.5574 42.6561C62.1187 41.8366 61.484 41.1384 60.71 40.6237L59.3337 39.7069L58.0816 41.5856L59.4579 42.5024C59.9224 42.8112 60.3032 43.2301 60.5664 43.7218C60.8296 44.2135 60.9669 44.7628 60.9663 45.3205V65.4839C60.9663 66.7292 59.9536 67.7419 58.7082 67.7419C57.4629 67.7419 56.4502 66.7292 56.4502 65.4839V26.8394L62.5515 24.5508L61.7589 22.4361L43.691 29.2115C42.5484 29.636 41.2116 29.0173 40.7871 27.8882C40.5777 27.3275 40.5992 26.7066 40.8468 26.1616C41.0944 25.6166 41.548 25.1921 42.1081 24.981L60.1771 18.2045C60.43 18.1119 60.6953 18.0645 60.964 18.0645C62.7607 18.0663 64.4833 18.7808 65.7537 20.0513C67.0242 21.3217 67.7387 23.0443 67.7405 24.841V65.4839Z" fill="url(#paint1_linear_1_813)"/>
<defs>
<linearGradient id="paint0_linear_1_813" x1="50.2405" y1="0" x2="50.2405" y2="70" gradientUnits="userSpaceOnUse">
<stop stop-color="#FF8100"/>
<stop offset="1" stop-color="#BD5F00"/>
</linearGradient>
<linearGradient id="paint1_linear_1_813" x1="50.2405" y1="0" x2="50.2405" y2="70" gradientUnits="userSpaceOnUse">
<stop stop-color="#FF8100"/>
<stop offset="1" stop-color="#BD5F00"/>
</linearGradient>
</defs>
</svg>
