<svg width="47" height="47" viewBox="0 0 47 47" fill="none" xmlns="http://www.w3.org/2000/svg">
<circle cx="23.5" cy="23.5" r="23.5" fill="#D9D9D9"/>
<path d="M18.5595 22.6019C19.5968 24.7226 21.3158 26.4338 23.4412 27.4614C23.5967 27.5351 23.7687 27.567 23.9403 27.554C24.1119 27.541 24.2771 27.4836 24.4198 27.3874L27.5492 25.3006C27.6877 25.2083 27.8469 25.152 28.0126 25.1368C28.1782 25.1215 28.3451 25.1479 28.498 25.2134L34.3526 27.7225C34.5515 27.807 34.7175 27.9538 34.8257 28.1409C34.9339 28.328 34.9783 28.5451 34.9524 28.7596C34.7673 30.2076 34.0608 31.5385 32.9652 32.5031C31.8695 33.4678 30.4598 33.9999 29 34C24.4913 34 20.1673 32.2089 16.9792 29.0208C13.7911 25.8327 12 21.5087 12 17C12.0001 15.5402 12.5322 14.1305 13.4969 13.0348C14.4615 11.9392 15.7924 11.2327 17.2404 11.0476C17.4549 11.0217 17.672 11.0661 17.8591 11.1743C18.0461 11.2825 18.193 11.4485 18.2775 11.6474L20.7888 17.5071C20.8537 17.6587 20.8802 17.824 20.8658 17.9883C20.8514 18.1525 20.7967 18.3107 20.7064 18.4487L18.6268 21.6261C18.5322 21.7691 18.4762 21.9341 18.4644 22.1051C18.4526 22.2762 18.4854 22.4473 18.5595 22.6019V22.6019Z" stroke="black" stroke-width="2" stroke-linecap="round" stroke-linejoin="round"/>
<path d="M27 14V19H32" stroke="black" stroke-width="2" stroke-linecap="round" stroke-linejoin="round"/>
<path d="M27 19L33 13" stroke="black" stroke-width="2" stroke-linecap="round" stroke-linejoin="round"/>
</svg>
