<svg width="47" height="47" viewBox="0 0 47 47" fill="none" xmlns="http://www.w3.org/2000/svg">
<circle cx="23.5" cy="23.5" r="23.5" fill="#D9D9D9"/>
<path d="M26 17V32.4648C26 32.6294 26.0406 32.7915 26.1183 32.9367C26.196 33.0818 26.3083 33.2055 26.4453 33.2969L27.8193 34.2129C27.9527 34.3018 28.1054 34.3573 28.2647 34.3748C28.424 34.3924 28.5851 34.3713 28.7346 34.3135C28.8841 34.2558 29.0175 34.1629 29.1236 34.0428C29.2296 33.9227 29.3053 33.7788 29.3442 33.6234L31 27" stroke="black" stroke-width="2" stroke-linecap="round" stroke-linejoin="round"/>
<path d="M31 27.0001C32.3261 27.0001 33.5979 26.4733 34.5355 25.5356C35.4732 24.5979 36 23.3261 36 22.0001C36 20.674 35.4732 19.4022 34.5355 18.4645C33.5979 17.5268 32.3261 17.0001 31 17.0001H26C26 17.0001 19.1935 17.0001 12.6436 11.5066C12.4979 11.384 12.3203 11.3055 12.1316 11.2804C11.9428 11.2554 11.7508 11.2847 11.5782 11.365C11.4055 11.4453 11.2594 11.5732 11.157 11.7337C11.0546 11.8942 11.0001 12.0806 11 12.271V31.7291C11.0001 31.9195 11.0546 32.1059 11.157 32.2664C11.2594 32.4269 11.4055 32.5549 11.5782 32.6351C11.7508 32.7154 11.9428 32.7448 12.1316 32.7197C12.3203 32.6946 12.4979 32.6161 12.6436 32.4935C19.1935 27.0001 26 27.0001 26 27.0001H31Z" stroke="black" stroke-width="2" stroke-linecap="round" stroke-linejoin="round"/>
</svg>
