<svg width="40" height="40" viewBox="0 0 40 40" fill="none" xmlns="http://www.w3.org/2000/svg">
<rect width="40" height="40" rx="20" fill="#2AB640"/>
<path fill-rule="evenodd" clip-rule="evenodd" d="M28.0295 11.8653C25.884 9.71723 23.0306 8.53372 19.9907 8.53247C13.7269 8.53247 8.62907 13.6302 8.62657 19.8957C8.62571 21.8986 9.14891 23.8537 10.1434 25.5771L8.53125 31.4658L14.5556 29.8855C16.2155 30.791 18.0843 31.2681 19.9861 31.2687H19.9909C26.2541 31.2687 31.3525 26.1706 31.3548 19.9048C31.3561 16.8682 30.1752 14.0132 28.0295 11.8653ZM19.9907 29.3495H19.9868C18.292 29.3488 16.6298 28.8933 15.1794 28.0329L14.8347 27.8281L11.2597 28.7659L12.2139 25.2804L11.9892 24.9231C11.0437 23.4192 10.5444 21.681 10.5453 19.8964C10.5473 14.6886 14.7846 10.4518 19.9945 10.4518C22.5174 10.4526 24.889 11.4363 26.6723 13.2217C28.4555 15.0071 29.437 17.3802 29.4362 19.9041C29.434 25.1122 25.197 29.3495 19.9907 29.3495ZM25.1717 22.2753C24.8879 22.1332 23.4918 21.4464 23.2314 21.3516C22.9713 21.2568 22.7818 21.2096 22.5927 21.4937C22.4033 21.7779 21.8592 22.4176 21.6935 22.6069C21.5278 22.7965 21.3623 22.8203 21.0783 22.6781C20.7943 22.536 19.8795 22.236 18.7948 21.2687C17.9508 20.5157 17.3809 19.5859 17.2152 19.3018C17.0498 19.0173 17.2138 18.8785 17.3398 18.7223C17.6471 18.3406 17.955 17.9404 18.0496 17.751C18.1443 17.5614 18.0969 17.3956 18.0258 17.2535C17.955 17.1114 17.3871 15.7138 17.1505 15.1451C16.9199 14.5916 16.6859 14.6663 16.5115 14.6577C16.3461 14.6494 16.1567 14.6478 15.9673 14.6478C15.7781 14.6478 15.4704 14.7187 15.2101 15.0031C14.9499 15.2874 14.2164 15.9743 14.2164 17.3719C14.2164 18.7696 15.2339 20.1198 15.3758 20.3093C15.5177 20.4988 17.3781 23.3669 20.2265 24.5967C20.9039 24.8895 21.4328 25.0641 21.8453 25.1949C22.5255 25.411 23.1444 25.3806 23.6337 25.3075C24.1793 25.2259 25.3135 24.6205 25.5504 23.9573C25.7869 23.294 25.7869 22.7255 25.7158 22.6069C25.645 22.4886 25.4556 22.4176 25.1717 22.2753Z" fill="white"/>
</svg>
